<svg width="37" height="47" viewBox="0 0 37 47" fill="none" xmlns="http://www.w3.org/2000/svg">
<g id="Group 47">
<g id="Group 46">
<circle id="Ellipse 84" cx="13.8317" cy="13.8317" r="11" transform="rotate(-17.765 13.8317 13.8317)" fill="#262E49" fill-opacity="0.4"/>
<circle id="Ellipse 85" cx="13.8317" cy="13.8317" r="6.05397" transform="rotate(-17.765 13.8317 13.8317)" fill="#262E49" fill-opacity="0.4"/>
<g id="pointing" filter="url(#filter0_d_66_6727)">
<path id="Shape" d="M12.3345 37.6772C11.7937 36.9818 11.1176 35.5717 9.93935 33.814C9.26329 32.8482 7.60212 31.0132 7.0999 30.0667C6.73787 29.4915 6.63282 28.7912 6.81017 28.1351C7.11335 26.8877 8.29664 26.0602 9.57234 26.2035C10.559 26.4017 11.4657 26.8853 12.18 27.5943C12.6787 28.064 13.1374 28.5744 13.5514 29.1202C13.8605 29.5065 13.9377 29.6611 14.2854 30.1053C14.6331 30.5496 14.8649 30.9939 14.6911 30.3371C14.5559 29.3713 14.3241 27.7488 13.9957 26.3001C13.7446 25.1991 13.6866 25.0253 13.4548 24.1947C13.2231 23.3641 13.0878 22.6687 12.8367 21.7222C12.6072 20.7923 12.4267 19.851 12.2959 18.9021C12.0524 17.6885 12.2295 16.4281 12.7981 15.3287C13.473 14.6939 14.463 14.5263 15.3092 14.9037C16.1602 15.5321 16.7948 16.4097 17.1249 17.4148C17.6311 18.6517 17.9689 19.9511 18.1293 21.278C18.4384 23.2096 19.0371 26.0297 19.0565 26.6092C19.0565 25.8945 18.9213 24.3878 19.0565 23.7118C19.1904 23.007 19.6803 22.4221 20.3506 22.1665C20.9259 21.99 21.5344 21.9503 22.1277 22.0506C22.7266 22.1758 23.257 22.5203 23.615 23.0164C24.0625 24.1433 24.3109 25.3393 24.349 26.5512C24.4008 25.49 24.5824 24.4391 24.8899 23.422C25.2127 22.9672 25.684 22.6393 26.2227 22.4949C26.8612 22.3781 27.5157 22.3781 28.1543 22.4949C28.6779 22.6699 29.136 23 29.4678 23.4413C29.8768 24.4658 30.1244 25.5474 30.2018 26.6478C30.2018 26.9182 30.337 25.8945 30.7619 25.2184C30.9827 24.5628 31.5366 24.0748 32.2147 23.9383C32.8929 23.8017 33.5924 24.0374 34.0497 24.5564C34.5071 25.0754 34.6528 25.799 34.4319 26.4546C34.4319 27.7102 34.4319 27.6522 34.4319 28.5021C34.4319 29.352 34.4319 30.1053 34.4319 30.82C34.3616 31.9504 34.2066 33.0738 33.9684 34.181C33.6322 35.1605 33.1643 36.0898 32.5776 36.9432C31.6397 37.9862 30.8648 39.1649 30.279 40.4394C30.1337 41.0725 30.0688 41.7215 30.0859 42.371C30.0839 42.971 30.1619 43.5686 30.3177 44.148C29.5279 44.2315 28.7315 44.2315 27.9418 44.148C27.1885 44.0321 26.2613 42.5255 26.0102 42.0619C25.886 41.813 25.6317 41.6557 25.3535 41.6557C25.0753 41.6557 24.821 41.813 24.6967 42.0619C24.2718 42.7959 23.3253 44.1287 22.6685 44.206C21.3744 44.3605 18.7088 44.206 16.6033 44.206C16.6033 44.206 16.951 42.2744 16.1591 41.579C15.3671 40.8836 14.5559 40.0724 13.9571 39.5315L12.3345 37.6772Z" fill="white"/>
<path id="Shape_2" fill-rule="evenodd" clip-rule="evenodd" d="M35.1549 30.865C35.1563 29.7287 35.1563 29.7287 35.1563 28.5021V26.5638C35.4029 25.6961 35.1934 24.7586 34.5932 24.0775C33.9648 23.3643 33.0036 23.0406 32.0717 23.2282C31.4368 23.356 30.8813 23.708 30.4957 24.2043C30.3939 23.8544 30.2754 23.5106 30.1404 23.1727C29.6267 22.4474 29.0468 22.0295 28.3839 21.8079C27.5598 21.6498 26.8171 21.6498 26.0924 21.7823C25.3672 21.9745 24.7744 22.373 24.3563 22.9248C24.3341 22.8661 24.3114 22.8075 24.2882 22.749C23.7387 21.9499 23.0516 21.5037 22.2759 21.3416C21.5439 21.2173 20.8213 21.2644 20.1381 21.474C19.6992 21.6405 19.322 21.8985 19.0251 22.2217C18.9537 21.8222 18.8946 21.4766 18.8445 21.1635C18.6802 19.7998 18.326 18.4374 17.7952 17.1404C17.436 16.0409 16.7114 15.0387 15.7394 14.321C14.4914 13.7459 13.1894 13.9662 12.3018 14.801L12.1547 14.9959C11.5105 16.2416 11.3098 17.6696 11.5857 19.0446C11.7126 19.975 11.8979 20.9413 12.1335 21.8958C12.2427 22.3078 12.2432 22.3098 12.4741 23.2777C12.4889 23.3397 12.4964 23.3708 12.5038 23.4019C12.5113 23.433 12.5189 23.4642 12.5339 23.5266C12.6126 23.8504 12.6813 24.1175 12.7571 24.3894C12.8869 24.8514 12.937 25.0303 12.9803 25.1908L13.006 25.2868C13.0856 25.587 13.1639 25.9105 13.2895 26.4612C13.4046 26.9691 13.5061 27.4796 13.6035 28.0339C13.3133 27.6984 13.003 27.3744 12.6766 27.067C11.8753 26.2713 10.8407 25.7195 9.71499 25.4934C8.01507 25.2997 6.49561 26.3623 6.1063 27.964C5.88077 28.7974 6.01709 29.7062 6.48687 30.4526C6.70974 30.8768 7.14167 31.4596 7.90924 32.4109L8.02868 32.5587C8.91968 33.6587 9.08 33.8564 9.22834 34.0626C9.26472 34.1132 9.30038 34.1643 9.34593 34.2294C9.62549 34.6466 10.1157 35.4551 10.5884 36.2347C11.1169 37.1063 11.6235 37.9419 11.7894 38.1542L13.4119 40.0085C13.6241 40.2046 14.1872 40.7376 14.5737 41.1033C14.7643 41.2837 14.9119 41.4234 14.9532 41.462C15.1404 41.6366 15.3122 41.7942 15.4771 41.9421C15.5281 41.9878 15.5536 42.0105 15.5792 42.0332C15.6046 42.0558 15.6302 42.0784 15.6811 42.1233C15.7965 42.2246 15.8934 42.4781 15.9339 42.8485C15.9683 43.1627 15.9589 43.5133 15.9214 43.8496C15.9091 43.9605 15.8972 44.0401 15.8904 44.0776C15.8105 44.5219 16.1519 44.9303 16.6033 44.9303C17.1232 44.9303 17.6599 44.9388 18.5131 44.9578L18.8075 44.9645C21.1188 45.017 21.9852 45.017 22.7544 44.9252C23.6335 44.8218 24.5687 43.7288 25.3621 42.3854C26.0368 43.6319 26.9035 44.7212 27.8316 44.8639C28.706 44.9572 29.5534 44.9572 30.3938 44.8683C30.8366 44.8215 31.1328 44.39 31.0171 43.96C30.8781 43.4426 30.8085 42.909 30.8102 42.3733C30.7945 41.7634 30.8533 41.1752 30.985 40.6014C31.4925 39.5336 32.2271 38.4162 33.1162 37.4275C33.7984 36.446 34.296 35.4578 34.6535 34.4161C34.9223 33.1908 35.0822 32.0315 35.1549 30.865ZM15.6796 40.1553C15.3027 39.7988 14.6442 39.176 14.4427 38.994L12.8967 37.2196C12.7835 37.0662 12.4157 36.4573 11.9885 35.7501C11.4806 34.9092 10.8888 33.9294 10.5411 33.4107C10.3799 33.1801 10.181 32.9202 9.90966 32.5802C9.8042 32.4481 9.72885 32.3547 9.5398 32.1215L9.15451 31.6469L9.0368 31.5013C8.33244 30.6283 7.92938 30.0844 7.73983 29.7272C7.45871 29.2769 7.38493 28.785 7.50949 28.3241C7.73115 27.4132 8.57828 26.8208 9.49157 26.9233C10.2773 27.0839 11.0562 27.4994 11.6698 28.1084C12.1529 28.5637 12.5847 29.0442 12.9744 29.558C13.0953 29.7095 13.1713 29.8113 13.2909 29.9788C13.4965 30.2673 13.5552 30.3475 13.7151 30.5518C13.7265 30.5663 13.7572 30.608 13.7978 30.6629C13.9095 30.8141 14.0955 31.0659 14.1569 31.131C14.2324 31.2271 14.2324 31.2271 14.6176 31.385C15.4443 31.0804 15.4489 31.0736 15.473 30.6853C15.4824 30.5327 15.4561 30.3962 15.3914 30.1518C15.1706 28.5378 14.975 27.3435 14.7022 26.14C14.573 25.5733 14.491 25.2345 14.4065 24.9157L14.3791 24.8132C14.3336 24.645 14.2813 24.4582 14.1526 24C14.0817 23.7458 14.0169 23.4938 13.9418 23.1847C13.9272 23.1245 13.9199 23.0942 13.9126 23.064C13.9053 23.0334 13.898 23.0029 13.8833 22.9415C13.6486 21.9578 13.6476 21.9535 13.5369 21.5365C13.3166 20.6434 13.1408 19.7269 13.0135 18.8032C12.804 17.7523 12.9367 16.7042 13.3827 15.7792C13.8403 15.4088 14.4706 15.3228 15.0142 15.5652C15.6091 16.0256 16.1536 16.7785 16.4368 17.6408C16.9362 18.8661 17.2576 20.1024 17.4103 21.3649C17.494 21.8918 17.5953 22.4662 17.7305 23.1983L17.7907 23.5226C18.3207 26.366 18.3244 26.3863 18.3326 26.6333C18.3642 27.5826 19.7809 27.559 19.7809 26.6092C19.7809 26.3999 19.7768 26.2877 19.7502 25.6599C19.7398 25.4122 19.7357 25.3067 19.731 25.1621C19.7105 24.5207 19.7207 24.0845 19.7668 23.8538C19.8552 23.3892 20.1733 23.0093 20.6088 22.8433C21.0306 22.7156 21.525 22.6833 22.007 22.7648C22.4016 22.8479 22.7754 23.0906 23.0277 23.4402C23.3584 24.3327 23.5896 25.446 23.6251 26.574C23.6543 27.5014 25.0274 27.5132 25.0726 26.5865C25.1194 25.6269 25.2786 24.6762 25.547 23.754C25.7682 23.482 26.07 23.2858 26.4104 23.1945C26.9055 23.1064 27.4716 23.1064 28.0241 23.2074C28.3091 23.3103 28.6453 23.5526 28.8888 23.8766C29.1764 24.6648 29.4072 25.673 29.4793 26.6986C29.4745 26.6972 29.4706 26.696 29.4684 26.6975C29.4577 26.7046 29.4883 26.7734 29.667 27.1756C30.403 27.3034 30.6265 27.3421 30.7338 27.2482C30.7806 27.2073 30.8054 27.1411 30.8409 27.0461L30.841 27.046C30.891 26.9442 30.891 26.9441 30.9052 26.9009C30.923 26.8481 30.9417 26.7776 30.9747 26.6499C31.0468 26.3767 31.1131 26.164 31.1992 25.9553C31.2554 25.8188 31.3146 25.7003 31.3753 25.6039C31.5867 25.0393 31.9333 24.7339 32.3578 24.6484C32.7823 24.5629 33.2201 24.7104 33.5063 25.0353C33.7926 25.3602 33.8838 25.8131 33.7456 26.2234L33.7077 26.4546V30.82C33.6409 31.8692 33.4909 32.9568 33.2603 34.0286C32.9685 34.8633 32.5303 35.7336 31.9808 36.5328C31.0524 37.5561 30.2372 38.7961 29.6209 40.1369C29.4141 40.9699 29.3432 41.6797 29.3618 42.39C29.3605 42.7503 29.387 43.1165 29.4409 43.4817C28.9663 43.4957 28.4909 43.4777 28.018 43.4277C27.783 43.3907 27.0651 42.4885 26.6472 41.7169C26.4115 41.2439 25.9063 40.9314 25.3535 40.9314C24.8008 40.9314 24.2955 41.2439 24.0487 41.7384C23.5693 42.5637 22.8016 43.461 22.584 43.4866C21.9139 43.5666 21.0577 43.5666 18.8405 43.5162L18.5455 43.5095C18.0903 43.4993 17.7235 43.4921 17.4002 43.4876C17.4098 43.2211 17.4028 42.953 17.3741 42.6908C17.2979 41.9948 17.0795 41.4232 16.6371 41.0347C16.5894 40.9927 16.5654 40.9715 16.5415 40.9503C16.5173 40.9288 16.4932 40.9072 16.4446 40.8638C16.2874 40.7227 16.1223 40.5713 15.9415 40.4027C15.9118 40.3749 15.8135 40.2819 15.6796 40.1553Z" fill="black"/>
<path id="Shape_3" d="M28.7146 38.7316V32.0642C28.7146 31.6651 28.3903 31.3416 27.9902 31.3416C27.5902 31.3416 27.2659 31.6651 27.2659 32.0642V38.7316C27.2659 39.1307 27.5902 39.4542 27.9902 39.4542C28.3903 39.4542 28.7146 39.1307 28.7146 38.7316Z" fill="black"/>
<path id="Shape_4" d="M24.8899 38.7292L24.8513 32.0583C24.849 31.6602 24.5228 31.3393 24.1228 31.3416C23.7227 31.3439 23.4003 31.6685 23.4026 32.0666L23.4412 38.7375C23.4435 39.1356 23.7697 39.4565 24.1697 39.4542C24.5698 39.4519 24.8922 39.1273 24.8899 38.7292Z" fill="black"/>
<path id="Shape_5" d="M19.5393 32.0736L19.578 38.7307C19.5803 39.1326 19.9065 39.4566 20.3065 39.4542C20.7065 39.4519 21.029 39.1241 21.0266 38.7222L20.988 32.0651C20.9857 31.6632 20.6595 31.3392 20.2594 31.3416C19.8594 31.3439 19.537 31.6717 19.5393 32.0736Z" fill="black"/>
</g>
</g>
</g>
<defs>
<filter id="filter0_d_66_6727" x="5.2" y="14" width="30.8576" height="32.8" filterUnits="userSpaceOnUse" color-interpolation-filters="sRGB">
<feFlood flood-opacity="0" result="BackgroundImageFix"/>
<feColorMatrix in="SourceAlpha" type="matrix" values="0 0 0 0 0 0 0 0 0 0 0 0 0 0 0 0 0 0 127 0" result="hardAlpha"/>
<feOffset dy="1"/>
<feGaussianBlur stdDeviation="0.4"/>
<feColorMatrix type="matrix" values="0 0 0 0 0 0 0 0 0 0 0 0 0 0 0 0 0 0 0.5 0"/>
<feBlend mode="normal" in2="BackgroundImageFix" result="effect1_dropShadow_66_6727"/>
<feBlend mode="normal" in="SourceGraphic" in2="effect1_dropShadow_66_6727" result="shape"/>
</filter>
</defs>
</svg>
